<?xml version="1.0" standalone="no" ?>
<!DOCTYPE svg PUBLIC "-//W3C//DTD SVG 1.1//EN" "http://www.w3.org/Graphics/SVG/1.1/DTD/svg11.dtd">
<svg width="1093px" height="76px" xmlns="http://www.w3.org/2000/svg" version="1.1" viewBox="0 0 1093 76" >
	<style type="text/css" > <![CDATA[
		@import url("https://www.ncbi.nlm.nih.gov/projects/sviewer/css/svg_fonts.css");
	]]>
	</style>
	<desc >Generated by NCBI Genome Workbench http://www.ncbi.nlm.nih.gov/tools/gbench/</desc>
	<defs >
		<linearGradient id="gradient1" gradientTransform="rotate(90)" >
			<stop offset="0%" stop-color="#6c6c6c" />
			<stop offset="50%" stop-color="#b5b5b5" />
			<stop offset="100%" stop-color="#6c6c6c" />
		</linearGradient>
		<linearGradient id="gradient2" gradientTransform="rotate(90)" >
			<stop offset="0%" stop-color="#000000" />
			<stop offset="50%" stop-color="#7f7f7f" />
			<stop offset="100%" stop-color="#000000" />
		</linearGradient>
		<linearGradient id="gradient3" gradientTransform="rotate(90)" >
			<stop offset="0%" stop-color="#e6e6e6" stop-opacity="0.71" />
			<stop offset="100%" stop-color="#ffffff" stop-opacity="0.00" />
		</linearGradient>
	</defs>
	<g >
		<polygon fill="#ffffff" shape-rendering="crispEdges" points="1093.00,32.00 1093.00,14.00 0.00,14.00 0.00,32.00 " />
		<line x1="0.08" y1="29.88" x2="1092.92" y2="29.88" stroke="#7f7f7f" stroke-width="1.00" />
		<line x1="7.62" y1="29.88" x2="7.62" y2="27.76" stroke="#7f7f7f" stroke-width="1.00" />
		<line x1="15.33" y1="29.88" x2="15.33" y2="26.71" stroke="#7f7f7f" stroke-width="1.00" />
		<line x1="23.03" y1="29.88" x2="23.03" y2="27.76" stroke="#7f7f7f" stroke-width="1.00" />
		<line x1="30.73" y1="29.88" x2="30.73" y2="26.71" stroke="#7f7f7f" stroke-width="1.00" />
		<line x1="38.43" y1="29.88" x2="38.43" y2="27.76" stroke="#7f7f7f" stroke-width="1.00" />
		<line x1="46.13" y1="29.88" x2="46.13" y2="26.71" stroke="#7f7f7f" stroke-width="1.00" />
		<line x1="53.83" y1="29.88" x2="53.83" y2="27.76" stroke="#7f7f7f" stroke-width="1.00" />
		<line x1="61.54" y1="29.88" x2="61.54" y2="26.71" stroke="#7f7f7f" stroke-width="1.00" />
		<line x1="69.24" y1="29.88" x2="69.24" y2="27.76" stroke="#7f7f7f" stroke-width="1.00" />
		<line x1="76.94" y1="29.88" x2="76.94" y2="26.71" stroke="#7f7f7f" stroke-width="1.00" />
		<line x1="84.64" y1="29.88" x2="84.64" y2="27.76" stroke="#7f7f7f" stroke-width="1.00" />
		<line x1="92.34" y1="29.88" x2="92.34" y2="26.71" stroke="#7f7f7f" stroke-width="1.00" />
		<line x1="100.04" y1="29.88" x2="100.04" y2="27.76" stroke="#7f7f7f" stroke-width="1.00" />
		<line x1="107.74" y1="29.88" x2="107.74" y2="26.71" stroke="#7f7f7f" stroke-width="1.00" />
		<line x1="115.45" y1="29.88" x2="115.45" y2="27.76" stroke="#7f7f7f" stroke-width="1.00" />
		<line x1="123.15" y1="29.88" x2="123.15" y2="26.71" stroke="#7f7f7f" stroke-width="1.00" />
		<line x1="130.85" y1="29.88" x2="130.85" y2="27.76" stroke="#7f7f7f" stroke-width="1.00" />
		<line x1="138.55" y1="29.88" x2="138.55" y2="26.71" stroke="#7f7f7f" stroke-width="1.00" />
		<line x1="146.25" y1="29.88" x2="146.25" y2="27.76" stroke="#7f7f7f" stroke-width="1.00" />
		<line x1="153.95" y1="29.88" x2="153.95" y2="26.71" stroke="#7f7f7f" stroke-width="1.00" />
		<line x1="161.65" y1="29.88" x2="161.65" y2="27.76" stroke="#7f7f7f" stroke-width="1.00" />
		<line x1="169.36" y1="29.88" x2="169.36" y2="26.71" stroke="#7f7f7f" stroke-width="1.00" />
		<line x1="177.06" y1="29.88" x2="177.06" y2="27.76" stroke="#7f7f7f" stroke-width="1.00" />
		<line x1="184.76" y1="29.88" x2="184.76" y2="26.71" stroke="#7f7f7f" stroke-width="1.00" />
		<line x1="192.46" y1="29.88" x2="192.46" y2="27.76" stroke="#7f7f7f" stroke-width="1.00" />
		<line x1="200.16" y1="29.88" x2="200.16" y2="26.71" stroke="#7f7f7f" stroke-width="1.00" />
		<line x1="207.86" y1="29.88" x2="207.86" y2="27.76" stroke="#7f7f7f" stroke-width="1.00" />
		<line x1="215.57" y1="29.88" x2="215.57" y2="26.71" stroke="#7f7f7f" stroke-width="1.00" />
		<line x1="223.27" y1="29.88" x2="223.27" y2="27.76" stroke="#7f7f7f" stroke-width="1.00" />
		<line x1="230.97" y1="29.88" x2="230.97" y2="26.71" stroke="#7f7f7f" stroke-width="1.00" />
		<line x1="238.67" y1="29.88" x2="238.67" y2="27.76" stroke="#7f7f7f" stroke-width="1.00" />
		<line x1="246.37" y1="29.88" x2="246.37" y2="26.71" stroke="#7f7f7f" stroke-width="1.00" />
		<line x1="254.07" y1="29.88" x2="254.07" y2="27.76" stroke="#7f7f7f" stroke-width="1.00" />
		<line x1="261.77" y1="29.88" x2="261.77" y2="26.71" stroke="#7f7f7f" stroke-width="1.00" />
		<line x1="269.48" y1="29.88" x2="269.48" y2="27.76" stroke="#7f7f7f" stroke-width="1.00" />
		<line x1="277.18" y1="29.88" x2="277.18" y2="26.71" stroke="#7f7f7f" stroke-width="1.00" />
		<line x1="284.88" y1="29.88" x2="284.88" y2="27.76" stroke="#7f7f7f" stroke-width="1.00" />
		<line x1="292.58" y1="29.88" x2="292.58" y2="26.71" stroke="#7f7f7f" stroke-width="1.00" />
		<line x1="300.28" y1="29.88" x2="300.28" y2="27.76" stroke="#7f7f7f" stroke-width="1.00" />
		<line x1="307.98" y1="29.88" x2="307.98" y2="26.71" stroke="#7f7f7f" stroke-width="1.00" />
		<line x1="315.69" y1="29.88" x2="315.69" y2="27.76" stroke="#7f7f7f" stroke-width="1.00" />
		<line x1="323.39" y1="29.88" x2="323.39" y2="26.71" stroke="#7f7f7f" stroke-width="1.00" />
		<line x1="331.09" y1="29.88" x2="331.09" y2="27.76" stroke="#7f7f7f" stroke-width="1.00" />
		<line x1="338.79" y1="29.88" x2="338.79" y2="26.71" stroke="#7f7f7f" stroke-width="1.00" />
		<line x1="346.49" y1="29.88" x2="346.49" y2="27.76" stroke="#7f7f7f" stroke-width="1.00" />
		<line x1="354.19" y1="29.88" x2="354.19" y2="26.71" stroke="#7f7f7f" stroke-width="1.00" />
		<line x1="361.89" y1="29.88" x2="361.89" y2="27.76" stroke="#7f7f7f" stroke-width="1.00" />
		<line x1="369.60" y1="29.88" x2="369.60" y2="26.71" stroke="#7f7f7f" stroke-width="1.00" />
		<line x1="377.30" y1="29.88" x2="377.30" y2="27.76" stroke="#7f7f7f" stroke-width="1.00" />
		<line x1="385.00" y1="29.88" x2="385.00" y2="26.71" stroke="#7f7f7f" stroke-width="1.00" />
		<line x1="392.70" y1="29.88" x2="392.70" y2="27.76" stroke="#7f7f7f" stroke-width="1.00" />
		<line x1="400.40" y1="29.88" x2="400.40" y2="26.71" stroke="#7f7f7f" stroke-width="1.00" />
		<line x1="408.10" y1="29.88" x2="408.10" y2="27.76" stroke="#7f7f7f" stroke-width="1.00" />
		<line x1="415.81" y1="29.88" x2="415.81" y2="26.71" stroke="#7f7f7f" stroke-width="1.00" />
		<line x1="423.51" y1="29.88" x2="423.51" y2="27.76" stroke="#7f7f7f" stroke-width="1.00" />
		<line x1="431.21" y1="29.88" x2="431.21" y2="26.71" stroke="#7f7f7f" stroke-width="1.00" />
		<line x1="438.91" y1="29.88" x2="438.91" y2="27.76" stroke="#7f7f7f" stroke-width="1.00" />
		<line x1="446.61" y1="29.88" x2="446.61" y2="26.71" stroke="#7f7f7f" stroke-width="1.00" />
		<line x1="454.31" y1="29.88" x2="454.31" y2="27.76" stroke="#7f7f7f" stroke-width="1.00" />
		<line x1="462.01" y1="29.88" x2="462.01" y2="26.71" stroke="#7f7f7f" stroke-width="1.00" />
		<line x1="469.72" y1="29.88" x2="469.72" y2="27.76" stroke="#7f7f7f" stroke-width="1.00" />
		<line x1="477.42" y1="29.88" x2="477.42" y2="26.71" stroke="#7f7f7f" stroke-width="1.00" />
		<line x1="485.12" y1="29.88" x2="485.12" y2="27.76" stroke="#7f7f7f" stroke-width="1.00" />
		<line x1="492.82" y1="29.88" x2="492.82" y2="26.71" stroke="#7f7f7f" stroke-width="1.00" />
		<line x1="500.52" y1="29.88" x2="500.52" y2="27.76" stroke="#7f7f7f" stroke-width="1.00" />
		<line x1="508.22" y1="29.88" x2="508.22" y2="26.71" stroke="#7f7f7f" stroke-width="1.00" />
		<line x1="515.92" y1="29.88" x2="515.92" y2="27.76" stroke="#7f7f7f" stroke-width="1.00" />
		<line x1="523.63" y1="29.88" x2="523.63" y2="26.71" stroke="#7f7f7f" stroke-width="1.00" />
		<line x1="531.33" y1="29.88" x2="531.33" y2="27.76" stroke="#7f7f7f" stroke-width="1.00" />
		<line x1="539.03" y1="29.88" x2="539.03" y2="26.71" stroke="#7f7f7f" stroke-width="1.00" />
		<line x1="546.73" y1="29.88" x2="546.73" y2="27.76" stroke="#7f7f7f" stroke-width="1.00" />
		<line x1="554.43" y1="29.88" x2="554.43" y2="26.71" stroke="#7f7f7f" stroke-width="1.00" />
		<line x1="562.13" y1="29.88" x2="562.13" y2="27.76" stroke="#7f7f7f" stroke-width="1.00" />
		<line x1="569.84" y1="29.88" x2="569.84" y2="26.71" stroke="#7f7f7f" stroke-width="1.00" />
		<line x1="577.54" y1="29.88" x2="577.54" y2="27.76" stroke="#7f7f7f" stroke-width="1.00" />
		<line x1="585.24" y1="29.88" x2="585.24" y2="26.71" stroke="#7f7f7f" stroke-width="1.00" />
		<line x1="592.94" y1="29.88" x2="592.94" y2="27.76" stroke="#7f7f7f" stroke-width="1.00" />
		<line x1="600.64" y1="29.88" x2="600.64" y2="26.71" stroke="#7f7f7f" stroke-width="1.00" />
		<line x1="608.34" y1="29.88" x2="608.34" y2="27.76" stroke="#7f7f7f" stroke-width="1.00" />
		<line x1="616.04" y1="29.88" x2="616.04" y2="26.71" stroke="#7f7f7f" stroke-width="1.00" />
		<line x1="623.75" y1="29.88" x2="623.75" y2="27.76" stroke="#7f7f7f" stroke-width="1.00" />
		<line x1="631.45" y1="29.88" x2="631.45" y2="26.71" stroke="#7f7f7f" stroke-width="1.00" />
		<line x1="639.15" y1="29.88" x2="639.15" y2="27.76" stroke="#7f7f7f" stroke-width="1.00" />
		<line x1="646.85" y1="29.88" x2="646.85" y2="26.71" stroke="#7f7f7f" stroke-width="1.00" />
		<line x1="654.55" y1="29.88" x2="654.55" y2="27.76" stroke="#7f7f7f" stroke-width="1.00" />
		<line x1="662.25" y1="29.88" x2="662.25" y2="26.71" stroke="#7f7f7f" stroke-width="1.00" />
		<line x1="669.96" y1="29.88" x2="669.96" y2="27.76" stroke="#7f7f7f" stroke-width="1.00" />
		<line x1="677.66" y1="29.88" x2="677.66" y2="26.71" stroke="#7f7f7f" stroke-width="1.00" />
		<line x1="685.36" y1="29.88" x2="685.36" y2="27.76" stroke="#7f7f7f" stroke-width="1.00" />
		<line x1="693.06" y1="29.88" x2="693.06" y2="26.71" stroke="#7f7f7f" stroke-width="1.00" />
		<line x1="700.76" y1="29.88" x2="700.76" y2="27.76" stroke="#7f7f7f" stroke-width="1.00" />
		<line x1="708.46" y1="29.88" x2="708.46" y2="26.71" stroke="#7f7f7f" stroke-width="1.00" />
		<line x1="716.16" y1="29.88" x2="716.16" y2="27.76" stroke="#7f7f7f" stroke-width="1.00" />
		<line x1="723.87" y1="29.88" x2="723.87" y2="26.71" stroke="#7f7f7f" stroke-width="1.00" />
		<line x1="731.57" y1="29.88" x2="731.57" y2="27.76" stroke="#7f7f7f" stroke-width="1.00" />
		<line x1="739.27" y1="29.88" x2="739.27" y2="26.71" stroke="#7f7f7f" stroke-width="1.00" />
		<line x1="746.97" y1="29.88" x2="746.97" y2="27.76" stroke="#7f7f7f" stroke-width="1.00" />
		<line x1="754.67" y1="29.88" x2="754.67" y2="26.71" stroke="#7f7f7f" stroke-width="1.00" />
		<line x1="762.37" y1="29.88" x2="762.37" y2="27.76" stroke="#7f7f7f" stroke-width="1.00" />
		<line x1="770.08" y1="29.88" x2="770.08" y2="26.71" stroke="#7f7f7f" stroke-width="1.00" />
		<line x1="777.78" y1="29.88" x2="777.78" y2="27.76" stroke="#7f7f7f" stroke-width="1.00" />
		<line x1="785.48" y1="29.88" x2="785.48" y2="26.71" stroke="#7f7f7f" stroke-width="1.00" />
		<line x1="793.18" y1="29.88" x2="793.18" y2="27.76" stroke="#7f7f7f" stroke-width="1.00" />
		<line x1="800.88" y1="29.88" x2="800.88" y2="26.71" stroke="#7f7f7f" stroke-width="1.00" />
		<line x1="808.58" y1="29.88" x2="808.58" y2="27.76" stroke="#7f7f7f" stroke-width="1.00" />
		<line x1="816.28" y1="29.88" x2="816.28" y2="26.71" stroke="#7f7f7f" stroke-width="1.00" />
		<line x1="823.99" y1="29.88" x2="823.99" y2="27.76" stroke="#7f7f7f" stroke-width="1.00" />
		<line x1="831.69" y1="29.88" x2="831.69" y2="26.71" stroke="#7f7f7f" stroke-width="1.00" />
		<line x1="839.39" y1="29.88" x2="839.39" y2="27.76" stroke="#7f7f7f" stroke-width="1.00" />
		<line x1="847.09" y1="29.88" x2="847.09" y2="26.71" stroke="#7f7f7f" stroke-width="1.00" />
		<line x1="854.79" y1="29.88" x2="854.79" y2="27.76" stroke="#7f7f7f" stroke-width="1.00" />
		<line x1="862.49" y1="29.88" x2="862.49" y2="26.71" stroke="#7f7f7f" stroke-width="1.00" />
		<line x1="870.19" y1="29.88" x2="870.19" y2="27.76" stroke="#7f7f7f" stroke-width="1.00" />
		<line x1="877.90" y1="29.88" x2="877.90" y2="26.71" stroke="#7f7f7f" stroke-width="1.00" />
		<line x1="885.60" y1="29.88" x2="885.60" y2="27.76" stroke="#7f7f7f" stroke-width="1.00" />
		<line x1="893.30" y1="29.88" x2="893.30" y2="26.71" stroke="#7f7f7f" stroke-width="1.00" />
		<line x1="901.00" y1="29.88" x2="901.00" y2="27.76" stroke="#7f7f7f" stroke-width="1.00" />
		<line x1="908.70" y1="29.88" x2="908.70" y2="26.71" stroke="#7f7f7f" stroke-width="1.00" />
		<line x1="916.40" y1="29.88" x2="916.40" y2="27.76" stroke="#7f7f7f" stroke-width="1.00" />
		<line x1="924.11" y1="29.88" x2="924.11" y2="26.71" stroke="#7f7f7f" stroke-width="1.00" />
		<line x1="931.81" y1="29.88" x2="931.81" y2="27.76" stroke="#7f7f7f" stroke-width="1.00" />
		<line x1="939.51" y1="29.88" x2="939.51" y2="26.71" stroke="#7f7f7f" stroke-width="1.00" />
		<line x1="947.21" y1="29.88" x2="947.21" y2="27.76" stroke="#7f7f7f" stroke-width="1.00" />
		<line x1="954.91" y1="29.88" x2="954.91" y2="26.71" stroke="#7f7f7f" stroke-width="1.00" />
		<line x1="962.61" y1="29.88" x2="962.61" y2="27.76" stroke="#7f7f7f" stroke-width="1.00" />
		<line x1="970.31" y1="29.88" x2="970.31" y2="26.71" stroke="#7f7f7f" stroke-width="1.00" />
		<line x1="978.02" y1="29.88" x2="978.02" y2="27.76" stroke="#7f7f7f" stroke-width="1.00" />
		<line x1="985.72" y1="29.88" x2="985.72" y2="26.71" stroke="#7f7f7f" stroke-width="1.00" />
		<line x1="993.42" y1="29.88" x2="993.42" y2="27.76" stroke="#7f7f7f" stroke-width="1.00" />
		<line x1="1001.12" y1="29.88" x2="1001.12" y2="26.71" stroke="#7f7f7f" stroke-width="1.00" />
		<line x1="1008.82" y1="29.88" x2="1008.82" y2="27.76" stroke="#7f7f7f" stroke-width="1.00" />
		<line x1="1016.52" y1="29.88" x2="1016.52" y2="26.71" stroke="#7f7f7f" stroke-width="1.00" />
		<line x1="1024.23" y1="29.88" x2="1024.23" y2="27.76" stroke="#7f7f7f" stroke-width="1.00" />
		<line x1="1031.93" y1="29.88" x2="1031.93" y2="26.71" stroke="#7f7f7f" stroke-width="1.00" />
		<line x1="1039.63" y1="29.88" x2="1039.63" y2="27.76" stroke="#7f7f7f" stroke-width="1.00" />
		<line x1="1047.33" y1="29.88" x2="1047.33" y2="26.71" stroke="#7f7f7f" stroke-width="1.00" />
		<line x1="1055.03" y1="29.88" x2="1055.03" y2="27.76" stroke="#7f7f7f" stroke-width="1.00" />
		<line x1="1062.73" y1="29.88" x2="1062.73" y2="26.71" stroke="#7f7f7f" stroke-width="1.00" />
		<line x1="1070.43" y1="29.88" x2="1070.43" y2="27.76" stroke="#7f7f7f" stroke-width="1.00" />
		<line x1="1078.14" y1="29.88" x2="1078.14" y2="26.71" stroke="#7f7f7f" stroke-width="1.00" />
		<line x1="1085.84" y1="29.88" x2="1085.84" y2="27.76" stroke="#7f7f7f" stroke-width="1.00" />
		<text x="0.08" y="24.59" font-family="Helvetica" font-size="10" dy="0" fill="#333333" >1</text>
		<line x1="0.08" y1="32.00" x2="0.08" y2="16.12" stroke="#7f7f7f" stroke-width="1.00" />
		<text x="1068.78" y="24.59" font-family="Helvetica" font-size="10" dy="0" fill="#333333" >7,096</text>
		<line x1="1092.92" y1="32.00" x2="1092.92" y2="16.12" stroke="#7f7f7f" stroke-width="1.00" />
		<text x="1003.12" y="24.59" font-family="Helvetica" font-size="10" dy="0" fill="#333333" >6,500</text>
		<line x1="1001.12" y1="32.00" x2="1001.12" y2="16.12" stroke="#7f7f7f" stroke-width="1.00" />
		<text x="926.11" y="24.59" font-family="Helvetica" font-size="10" dy="0" fill="#333333" >6 K</text>
		<line x1="924.11" y1="32.00" x2="924.11" y2="16.12" stroke="#7f7f7f" stroke-width="1.00" />
		<text x="849.09" y="24.59" font-family="Helvetica" font-size="10" dy="0" fill="#333333" >5,500</text>
		<line x1="847.09" y1="32.00" x2="847.09" y2="16.12" stroke="#7f7f7f" stroke-width="1.00" />
		<text x="772.08" y="24.59" font-family="Helvetica" font-size="10" dy="0" fill="#333333" >5 K</text>
		<line x1="770.08" y1="32.00" x2="770.08" y2="16.12" stroke="#7f7f7f" stroke-width="1.00" />
		<text x="695.06" y="24.59" font-family="Helvetica" font-size="10" dy="0" fill="#333333" >4,500</text>
		<line x1="693.06" y1="32.00" x2="693.06" y2="16.12" stroke="#7f7f7f" stroke-width="1.00" />
		<text x="618.04" y="24.59" font-family="Helvetica" font-size="10" dy="0" fill="#333333" >4 K</text>
		<line x1="616.04" y1="32.00" x2="616.04" y2="16.12" stroke="#7f7f7f" stroke-width="1.00" />
		<text x="541.03" y="24.59" font-family="Helvetica" font-size="10" dy="0" fill="#333333" >3,500</text>
		<line x1="539.03" y1="32.00" x2="539.03" y2="16.12" stroke="#7f7f7f" stroke-width="1.00" />
		<text x="464.01" y="24.59" font-family="Helvetica" font-size="10" dy="0" fill="#333333" >3 K</text>
		<line x1="462.01" y1="32.00" x2="462.01" y2="16.12" stroke="#7f7f7f" stroke-width="1.00" />
		<text x="387.00" y="24.59" font-family="Helvetica" font-size="10" dy="0" fill="#333333" >2,500</text>
		<line x1="385.00" y1="32.00" x2="385.00" y2="16.12" stroke="#7f7f7f" stroke-width="1.00" />
		<text x="309.98" y="24.59" font-family="Helvetica" font-size="10" dy="0" fill="#333333" >2 K</text>
		<line x1="307.98" y1="32.00" x2="307.98" y2="16.12" stroke="#7f7f7f" stroke-width="1.00" />
		<text x="232.97" y="24.59" font-family="Helvetica" font-size="10" dy="0" fill="#333333" >1,500</text>
		<line x1="230.97" y1="32.00" x2="230.97" y2="16.12" stroke="#7f7f7f" stroke-width="1.00" />
		<text x="155.95" y="24.59" font-family="Helvetica" font-size="10" dy="0" fill="#333333" >1 K</text>
		<line x1="153.95" y1="32.00" x2="153.95" y2="16.12" stroke="#7f7f7f" stroke-width="1.00" />
		<text x="78.94" y="24.59" font-family="Helvetica" font-size="10" dy="0" fill="#333333" >500</text>
		<line x1="76.94" y1="32.00" x2="76.94" y2="16.12" stroke="#7f7f7f" stroke-width="1.00" />
		<line x1="0.00" y1="76.00" x2="0.00" y2="32.00" stroke="#ebebeb" stroke-width="1.00" />
		<line x1="76.07" y1="76.00" x2="76.07" y2="32.00" stroke="#ebebeb" stroke-width="1.00" />
		<line x1="153.14" y1="76.00" x2="153.14" y2="32.00" stroke="#ebebeb" stroke-width="1.00" />
		<line x1="230.21" y1="76.00" x2="230.21" y2="32.00" stroke="#ebebeb" stroke-width="1.00" />
		<line x1="307.28" y1="76.00" x2="307.28" y2="32.00" stroke="#ebebeb" stroke-width="1.00" />
		<line x1="384.35" y1="76.00" x2="384.35" y2="32.00" stroke="#ebebeb" stroke-width="1.00" />
		<line x1="462.42" y1="76.00" x2="462.42" y2="32.00" stroke="#ebebeb" stroke-width="1.00" />
		<line x1="539.49" y1="76.00" x2="539.49" y2="32.00" stroke="#ebebeb" stroke-width="1.00" />
		<line x1="616.56" y1="76.00" x2="616.56" y2="32.00" stroke="#ebebeb" stroke-width="1.00" />
		<line x1="693.63" y1="76.00" x2="693.63" y2="32.00" stroke="#ebebeb" stroke-width="1.00" />
		<line x1="770.71" y1="76.00" x2="770.71" y2="32.00" stroke="#ebebeb" stroke-width="1.00" />
		<line x1="847.78" y1="76.00" x2="847.78" y2="32.00" stroke="#ebebeb" stroke-width="1.00" />
		<line x1="924.85" y1="76.00" x2="924.85" y2="32.00" stroke="#ebebeb" stroke-width="1.00" />
		<line x1="1001.92" y1="76.00" x2="1001.92" y2="32.00" stroke="#ebebeb" stroke-width="1.00" />
		<line x1="1078.99" y1="76.00" x2="1078.99" y2="32.00" stroke="#ebebeb" stroke-width="1.00" />
		<line x1="0.00" y1="67.00" x2="0.00" y2="32.00" stroke="#ff3737" stroke-width="1.00" />
		<line x1="0.00" y1="77.00" x2="0.00" y2="67.00" stroke="#196e19" stroke-width="1.00" />
		<polygon fill="url('#gradient1')" shape-rendering="crispEdges" points="1093.15,38.50 1093.15,34.00 0.00,34.00 0.00,38.50 0.00,43.00 1093.15,43.00 " />
		<line x1="0.00" y1="43.00" x2="0.00" y2="34.00" stroke="#6c6c6c" stroke-width="1.00" stroke-linejoin="round" />
		<line x1="0.00" y1="34.00" x2="1093.15" y2="34.00" stroke="#6c6c6c" stroke-width="1.00" stroke-linejoin="round" />
		<line x1="1093.15" y1="34.00" x2="1093.15" y2="43.00" stroke="#6c6c6c" stroke-width="1.00" stroke-linejoin="round" />
		<line x1="0.00" y1="43.00" x2="1093.15" y2="43.00" stroke="#6c6c6c" stroke-width="1.00" stroke-linejoin="round" />
		<polygon fill="url('#gradient2')" shape-rendering="crispEdges" points="1093.00,67.00 1093.00,72.00 0.00,72.00 0.00,67.00 0.00,62.00 1093.00,62.00 " />
		<text x="507.07" y="70.50" font-family="Helvetica" font-size="10" fill="#ffffff" >orf1ab polyprotein</text>
		<line x1="-85.02" y1="73.00" x2="-85.02" y2="61.00" stroke="#000000" stroke-width="1.50" stroke-linejoin="round" />
		<line x1="-85.02" y1="61.00" x2="1094.00" y2="61.00" stroke="#000000" stroke-width="1.50" stroke-linejoin="round" />
		<line x1="1094.00" y1="61.00" x2="1094.00" y2="73.00" stroke="#000000" stroke-width="1.50" stroke-linejoin="round" />
		<line x1="-85.02" y1="73.00" x2="1094.00" y2="73.00" stroke="#000000" stroke-width="1.50" stroke-linejoin="round" />
		<polygon fill="url('#gradient3')" shape-rendering="crispEdges" points="0.00,59.00 1093.31,59.00 1093.31,45.00 0.00,45.00 " />
		<text x="0.00" y="55.00" font-family="Helvetica" font-size="12" fill="#333333" >Protein Features</text>
		<polygon fill="#e5e5e5" shape-rendering="crispEdges" points="1093.00,14.00 1093.00,0.00 0.00,0.00 0.00,14.00 " />
		<text x="0.00" y="11.00" font-family="Helvetica Bold" font-size="12" text-anchor="start" fill="#000000" >QHD43415.1:0..7096 orf1ab polyprotein [Severe acute respiratory syndrome coronavirus 2]</text>
	</g>
</svg>
